<svg id="Layer_1" data-name="Layer 1" xmlns="http://www.w3.org/2000/svg" viewBox="0 0 317.98 266.99"><title>e</title><path d="M236.7,241.89l-176-86,3.86-9.21c.7.25,37,13,82.52,26.78L34.52,87.37l6.08-7.94L173.85,181.36c36.67,10.5,75.8,20.33,105.72,24.42l-1.35,9.91c-24.21-3.31-54.19-10.3-83-18l46.76,35.77Zm-106.21-63,65.47,32-26.64-20.38c-10.28-3-20.12-5.88-29.14-8.63Z"/><path d="M269.6,172.67c-.16-.07-15.87-6.75-31.36-14.51-28.2-14.11-33.82-20.38-33.74-25.92,0-1.45.57-5,5.24-6.84,10.33-4,29.18.74,43.19,5.46l-14.61-18.35,3.91-8.11h.19L142.87,41l5.38-8.43,114,72.67-2.69,9.22h-7L272.14,139l-5.91,7.7c-13.79-6-37.85-14-49.56-12.69,7,5.74,28,17.26,56.84,29.5Z"/></svg>