<svg xmlns="http://www.w3.org/2000/svg" viewBox="0 0 232.97 313.45"><defs><style>.cls-1{fill:none;}.cls-2{fill:#221f1f;}</style></defs><title>Asset 1</title><g id="Layer_2" data-name="Layer 2"><g id="Layer_1-2" data-name="Layer 1"><path d="M84.75,231.14a27.76,27.76,0,0,1-2.81-.13c-12.15,0-22.66-5.52-30.42-15.88a54.26,54.26,0,0,1-6.75-12.06C29.48,201.51,20,190.7,19.61,190.2l-.1-.12c-13.71-17-9.07-36.55-6-45.07C.68,135.26.12,118,.11,115.53-1.32,95.92,11.63,85,18.53,80.67,15.28,69.43,16,59.55,20.82,51.23c9-15.59,28.7-19.29,29.53-19.44h0A37.09,37.09,0,0,1,65.55,13a49.93,49.93,0,0,1,17-7l.13,0c19.15-2.81,30.27,5.5,36.21,13a43.81,43.81,0,0,1,8.17,16.83,5.14,5.14,0,0,1,.1,1V206.57a5.13,5.13,0,0,1-1.5,3.63l-4,4C106.57,229.3,91.28,231.14,84.75,231.14Zm-2.52-10.39a5.2,5.2,0,0,1,.74.05c.6.08,15.75,1.84,31.43-13.84l2.52-2.52v-167a34.14,34.14,0,0,0-6.25-12.33c-6.19-7.58-15.07-10.59-26.4-9A40.23,40.23,0,0,0,70.89,21.8C62.62,27.32,58.41,35.2,58.4,45.24a40.25,40.25,0,0,0,4.05,15.54c4.86,9.54,13.34,14.37,25.21,14.37a5.13,5.13,0,0,1,0,10.26c-20.18,0-29.92-11.06-34.53-20.34a50.18,50.18,0,0,1-5-19.72q0-1.21.06-2.39c-5.16,1.67-14,5.57-18.52,13.43-3.75,6.58-3.81,15-.16,24.95a5.13,5.13,0,0,1-2.74,6.45c-.71.32-17.9,8.31-16.44,27.15q0,.24,0,.47c0,.15,0,16.71,11.94,23.09a5.13,5.13,0,0,1,2.16,6.84c-.43.86-10.45,21.49,3,38.22.57.62,8.79,9.44,21,9.44a5.13,5.13,0,0,1,4.94,3.73c.28,1,7.18,24,28.67,24Z"/><path d="M122.05,65.87h-.19C97.59,65,90.07,53.53,89.29,52.23L98.1,47l-.06-.1c.22.33,5.57,8.07,24.2,8.75a5.13,5.13,0,0,1-.18,10.25Z"/><path d="M49.45,88.11A5.13,5.13,0,0,1,44.74,81C49.22,70.49,61.5,66.44,62,66.27A5.13,5.13,0,0,1,65.18,76c-.18.06-8.4,2.87-11,9A5.13,5.13,0,0,1,49.45,88.11Z"/><path d="M39,138.39A5.13,5.13,0,0,1,35,130c8.93-11.09.27-23-.1-23.46a5.13,5.13,0,0,1,8.17-6.2c4.88,6.39,11.14,22.16-.08,36.09A5.12,5.12,0,0,1,39,138.39Z"/><path d="M51.08,124.12c-1.83,0-3.82-.07-6-.22a5.13,5.13,0,1,1,.71-10.23c11.61.81,15.32-1.13,15.91-1.5l.26-.28c16.4-16,29-15.55,32.15-15.13,19.87.2,31.52,15,32,15.67a5.13,5.13,0,0,1-8.11,6.27c-.15-.19-9.38-11.69-24.3-11.69a3.41,3.41,0,0,1-1-.09,16.2,16.2,0,0,0-6.32.94c-3.77,1.2-9.77,4.11-17,11.11C67.53,121.22,62.85,124.12,51.08,124.12ZM61.22,112.8h0Zm0,0h0Zm0,0h0Zm.55-.68Zm30.87-5.2Z"/><path d="M49.45,181.17a5.11,5.11,0,0,1-3.77-1.65c-11-11.93-6.49-24.24-6.3-24.76L49,158.39l0-.07c-.1.29-2.34,7.11,4.22,14.25a5.13,5.13,0,0,1-3.77,8.6Z"/><path d="M89.27,189.47a5.13,5.13,0,0,1-3.63-8.75c14.67-14.67,32-10.31,39.09-5.95a5.13,5.13,0,0,1-5.34,8.76,22.89,22.89,0,0,0-8.77-2.6c-6.51-.58-12.48,1.79-17.73,7A5.11,5.11,0,0,1,89.27,189.47Z"/><path d="M48.44,203.25a5.12,5.12,0,0,1-5.07-4.43c-.12-.88-2.79-21.67,9.08-35.56,6.49-7.59,15.87-11.57,27.87-11.82a5.13,5.13,0,0,1,.22,10.25c-8.93.19-15.75,2.94-20.26,8.19-8.89,10.35-6.77,27.39-6.74,27.56a5.13,5.13,0,0,1-4.4,5.76A5.19,5.19,0,0,1,48.44,203.25Z"/><path d="M122,236.3a5.13,5.13,0,0,1-5.13-5.13V5.13a5.13,5.13,0,0,1,10.26,0v226A5.13,5.13,0,0,1,122,236.3Z"/><path class="cls-1" d="M127.89,24.61v4.83a91.53,91.53,0,1,1,0,183.07v4.83a96.36,96.36,0,1,0,0-192.72Z"/><path class="cls-1" d="M125.51,96.67a17.19,17.19,0,0,0,1.17,6.23V90.43A17.21,17.21,0,0,0,125.51,96.67Z"/><path d="M126.68,14.08v58a29.24,29.24,0,0,1,10.17-4.24V58.32a6,6,0,1,1,12.06,0V67.9a29.34,29.34,0,0,1,18.52,12.62,6,6,0,1,1-10.07,6.63,17.33,17.33,0,0,0-8.46-6.74v34.23a29.41,29.41,0,0,1,0,57.57v9.56a6,6,0,0,1-12.06,0v-9.58a29.33,29.33,0,0,1-10.17-4.24V226a106,106,0,1,0,0-211.94Zm1.21,203.26V212.5a91.53,91.53,0,1,0,0-183.07V24.61a96.36,96.36,0,1,1,0,192.72Z"/><path d="M128.39,152.95a17.34,17.34,0,0,0,8.46,6.73V125.46a29.25,29.25,0,0,1-10.17-4.25v30A6,6,0,0,1,128.39,152.95Z"/><path d="M136.85,80.41a17.44,17.44,0,0,0-10.17,10V102.9a17.44,17.44,0,0,0,10.17,10Z"/><path d="M160.24,143.42a17.36,17.36,0,0,0-11.34-16.26v32.51A17.36,17.36,0,0,0,160.24,143.42Z"/><path class="cls-2" d="M11.94,272.78v-33h3.83v33Z"/><path class="cls-2" d="M41.17,272.78v-16a6.45,6.45,0,0,0-1.38-4.51,5.6,5.6,0,0,0-4.31-1.49q-3.88,0-5.68,2.1T28,259.81v13H24.26V248.06h3l.61,3.38h.18a7.64,7.64,0,0,1,3.22-2.83,10.48,10.48,0,0,1,4.62-1q4.47,0,6.72,2.15t2.26,6.89v16.12Z"/><path class="cls-2" d="M58,272.78l-9.38-24.72h4L58,262.72a69.71,69.71,0,0,1,2.12,6.67h.18a50.52,50.52,0,0,1,1.57-4.95q1.32-3.76,5.92-16.38h4l-9.38,24.72Z"/><path class="cls-2" d="M75.42,241.36a2.49,2.49,0,0,1,.63-1.88,2.34,2.34,0,0,1,3.13,0,2.44,2.44,0,0,1,.65,1.87,2.48,2.48,0,0,1-.65,1.88,2.18,2.18,0,0,1-1.56.62,2.16,2.16,0,0,1-1.58-.62A2.53,2.53,0,0,1,75.42,241.36Zm4.06,31.41H75.74V248.06h3.74Z"/><path class="cls-2" d="M97.86,273.23a11.36,11.36,0,0,1-8.65-3.34Q86,266.55,86,260.62T89,251.13a9.77,9.77,0,0,1,7.9-3.52,9.32,9.32,0,0,1,7.35,3.06,11.71,11.71,0,0,1,2.71,8.06v2.37h-17q.11,4.35,2.2,6.61A7.6,7.6,0,0,0,98,270a19.9,19.9,0,0,0,7.89-1.67v3.34a19.82,19.82,0,0,1-3.75,1.23A21.1,21.1,0,0,1,97.86,273.23Zm-1-22.48a6.12,6.12,0,0,0-4.75,1.94A8.94,8.94,0,0,0,90,258.05h12.92a8.23,8.23,0,0,0-1.58-5.42A5.56,5.56,0,0,0,96.85,250.74Z"/><path class="cls-2" d="M124.61,247.61a14.63,14.63,0,0,1,3,.27l-.52,3.47a12.78,12.78,0,0,0-2.71-.34,6.59,6.59,0,0,0-5.13,2.44,8.88,8.88,0,0,0-2.13,6.07v13.26h-3.74V248.06h3.09l.43,4.58H117a10.87,10.87,0,0,1,3.31-3.72A7.46,7.46,0,0,1,124.61,247.61Z"/><path class="cls-2" d="M140.17,270.14a12.19,12.19,0,0,0,1.92-.15,12.49,12.49,0,0,0,1.47-.3v2.86a6.84,6.84,0,0,1-1.79.48,13.51,13.51,0,0,1-2.13.19q-7.17,0-7.17-7.55V251h-3.54v-1.8l3.54-1.56,1.58-5.28h2.17v5.73h7.17V251H136.2v14.55a5,5,0,0,0,1.06,3.43A3.69,3.69,0,0,0,140.17,270.14Z"/><path class="cls-2" d="M158.93,273.23a11.36,11.36,0,0,1-8.65-3.34q-3.17-3.34-3.17-9.27t2.94-9.49a9.77,9.77,0,0,1,7.9-3.52,9.32,9.32,0,0,1,7.35,3.06,11.71,11.71,0,0,1,2.71,8.06v2.37H151q.11,4.35,2.2,6.61a7.6,7.6,0,0,0,5.88,2.26,19.9,19.9,0,0,0,7.89-1.67v3.34a19.83,19.83,0,0,1-3.75,1.23A21.1,21.1,0,0,1,158.93,273.23Zm-1-22.48a6.11,6.11,0,0,0-4.75,1.94,8.93,8.93,0,0,0-2.09,5.37H164a8.23,8.23,0,0,0-1.58-5.42A5.55,5.55,0,0,0,157.92,250.74Z"/><path class="cls-2" d="M196.84,273.23a11.36,11.36,0,0,1-8.65-3.34q-3.17-3.34-3.17-9.27t2.94-9.49a9.77,9.77,0,0,1,7.9-3.52,9.32,9.32,0,0,1,7.35,3.06,11.71,11.71,0,0,1,2.71,8.06v2.37h-17q.11,4.35,2.2,6.61A7.6,7.6,0,0,0,197,270a19.9,19.9,0,0,0,7.89-1.67v3.34a19.83,19.83,0,0,1-3.75,1.23A21.1,21.1,0,0,1,196.84,273.23Zm-1-22.48a6.11,6.11,0,0,0-4.75,1.94,8.93,8.93,0,0,0-2.09,5.37h12.92a8.23,8.23,0,0,0-1.58-5.42A5.55,5.55,0,0,0,195.82,250.74Z"/><path class="cls-2" d="M229.22,272.78v-16a6.45,6.45,0,0,0-1.38-4.51,5.61,5.61,0,0,0-4.31-1.49q-3.88,0-5.68,2.1t-1.8,6.92v13h-3.74V248.06h3l.61,3.38h.18a7.64,7.64,0,0,1,3.22-2.83,10.48,10.48,0,0,1,4.62-1q4.46,0,6.72,2.15t2.25,6.89v16.12Z"/><path class="cls-2" d="M40.3,310.77s0-.09,0-.14,0-.32-.18-.32h-.32a.69.69,0,0,1-.88-.42,2.62,2.62,0,0,1-.32-1,7.25,7.25,0,0,0-.6-2.17,3.87,3.87,0,0,1-.23-2.17,25.77,25.77,0,0,1,.55-2.72,45.35,45.35,0,0,1,1.52-5,12,12,0,0,0,.37-1.2c.51-1.62,1.2-3.14,1.85-4.71.23-.51.42-1.06.6-1.57.51-1.38,1.2-2.68,1.8-4,0-.14.09-.23.14-.37a.31.31,0,0,0-.19-.37,2.46,2.46,0,0,0-.6,0c-1.11.09-2.22.23-3.33.32-.51,0-1.06,0-1.57.09-.09,0-.19,0-.23-.09,1.06-.14,2.08-.28,3.14-.37.83-.14,1.66-.23,2.49-.37.09,0,.18,0,.28,0s.09-.09.09-.14-.09-.14-.09-.14a2.22,2.22,0,0,0-.55,0c-1.25.14-2.49.32-3.74.46-.69,0-1.39.14-2.08.18a1.56,1.56,0,0,1-1.11-.18.17.17,0,0,1,0-.14c0-.09,0-.14.09-.14a.67.67,0,0,1,.32-.09c2.08-.28,4.16-.55,6.28-.79l1.2-.14a2.94,2.94,0,0,0,.6-.18.35.35,0,0,0,.09-.23.15.15,0,0,0-.14-.14,9.33,9.33,0,0,0-1.15,0c-1.89.23-3.79.51-5.64.74a10.1,10.1,0,0,1-1.66.09.81.81,0,0,1-.79-.51.71.71,0,0,1,.18-.88c.18-.19.23-.28.09-.51s0-.23.09-.28a1.66,1.66,0,0,1,.42-.19.16.16,0,0,0,0-.09s0-.09-.09-.09a.28.28,0,0,0-.18,0c-.19,0-.42.14-.55-.14s.09-.32.18-.46a2.72,2.72,0,0,1,1.57-1.29,21.37,21.37,0,0,1,4.2-1c.83,0,1.62-.09,2.45-.14a5.06,5.06,0,0,0,1.2-.14,7.32,7.32,0,0,1,2.45-.37.9.9,0,0,1,.6,0,5.06,5.06,0,0,0,1.66,0,12.58,12.58,0,0,1,2.63-.09,2,2,0,0,1,.74.09,4.47,4.47,0,0,0,1.57.23,4.4,4.4,0,0,1,2.82.83,2,2,0,0,1,.92,1.57,3,3,0,0,0,.37,1c.14.37.32.74.46,1.11a1,1,0,0,1-.28,1.16l-.23.23c-.14.19,0,.28.09.37A1,1,0,0,1,60,284c.14.09.09.28,0,.37a1.66,1.66,0,0,1-1.15.14,1.07,1.07,0,0,1-.37-.09,10.26,10.26,0,0,0-3.33-.55H52.77c-1.06,0-1.34.32-1.39,1.39a.87.87,0,0,0,.14.74.74.74,0,0,1,0,.69,21.7,21.7,0,0,1-1,2.4,4.25,4.25,0,0,0-.32.65,17,17,0,0,1-1.34,3,2.35,2.35,0,0,0-.32.79,1.86,1.86,0,0,1-.46,1.11.58.58,0,0,0-.19.32c-.09.69-.55,1.25-.69,1.94a.83.83,0,0,1-.09.46c-.65,1.29-1,2.73-1.62,4.06a11.8,11.8,0,0,0-.6,1.8,5.47,5.47,0,0,1-.55,1.29c0,.09,0,.18-.09.23a10.66,10.66,0,0,1-.69,2.45s0,.09,0,.19a11.55,11.55,0,0,1-.42,2.12,3,3,0,0,1-.37,1l-1.52.69a1.87,1.87,0,0,1-.69.14C40.3,311.24,40.21,311.05,40.3,310.77Zm-.74-30.25c2.31-.37,4.62-.6,7-.79l1-.14a.68.68,0,0,0,.32-.14s0-.09,0-.18a.16.16,0,0,0-.09,0c-.09,0-.19,0-.32,0-.42,0-.88.09-1.29.09a56.79,56.79,0,0,0-6.19.79,5.5,5.5,0,0,0-.83.23c-.09,0-.28,0-.23.18a.49.49,0,0,0,.23.09C39.33,280.57,39.43,280.52,39.56,280.52Zm6.7,0a3,3,0,0,0,.92-.18s.09-.09.09-.14-.09-.09-.14-.09a4.05,4.05,0,0,0-1.29,0,6.93,6.93,0,0,0-1,.09c-1.39.14-2.77.32-4.16.6-.28,0-.55.14-.88.18a.52.52,0,0,0,.55.09C42.34,280.84,44.28,280.57,46.26,280.47Zm-4.11,30.71c.23-.28.42-.51.65-.74a.91.91,0,0,1-.51.88.17.17,0,0,1-.14,0C42,311.33,42.1,311.24,42.15,311.19ZM44,303.48s0,0,0,0,0-.09-.09,0v.09S44,303.52,44,303.48Zm12.29-23.93.09-.09s0-.14-.09-.14a1.35,1.35,0,0,0-.42-.09l-1.48-.14a19.07,19.07,0,0,0-3.23-.09,3.14,3.14,0,0,0-.65.09.12.12,0,0,0-.14.14.21.21,0,0,0,.14.14c.23,0,.46,0,.69.09a34.11,34.11,0,0,1,4.34.09Zm-1.57.51a9,9,0,0,0-2.91-.32.56.56,0,0,0-.46.14.23.23,0,0,0,0,.14,1.18,1.18,0,0,0,.32.09C52.64,280.1,53.7,280.1,54.71,280.06Zm1.57,2.63a.2.2,0,0,0,.19-.18c0-.09,0-.14-.14-.18a3.92,3.92,0,0,0-.79-.14,16,16,0,0,0-3.33-.14c-.28,0-.46.23-.42.37s.28.18.46.18h1.85v0c.42,0,.83,0,1.2,0Zm-1.89,1s.14-.09.14-.18-.09-.09-.14-.09c-.6,0-1.2,0-1.8,0v.14l1.2.14C54,283.71,54.16,283.66,54.39,283.66Zm5.4,1.2,0,0,0,0Z"/><path class="cls-2" d="M61.64,311.42a12.11,12.11,0,0,1-2.77-1.85,8.48,8.48,0,0,1-.79-1c-.55-1.11-1.15-2.17-1.66-3.28a15,15,0,0,1-1-3.74,19.68,19.68,0,0,1,.18-7,31.76,31.76,0,0,1,2-6.79c.69-1.62,1.39-3.23,2.12-4.85a27.39,27.39,0,0,1,2.77-4.43A6.85,6.85,0,0,1,63.77,277a1,1,0,0,1,1.25-.09,1,1,0,0,1,.69,1.15,1,1,0,0,0,.46,1,1.57,1.57,0,0,1,.6,1.38,9.07,9.07,0,0,1,0,1.57.66.66,0,0,0,.14.65,1,1,0,0,1,.09.65,5.66,5.66,0,0,1-.42,1.34c-.32,1-.69,1.89-1,2.82s-.6,1.89-.92,2.82a2.26,2.26,0,0,1-.14.32A1.88,1.88,0,0,0,64,292a26.92,26.92,0,0,1-1.11,3,.79.79,0,0,1,0,.65c-.18.65-.46,1.29-.6,1.94a17.16,17.16,0,0,0-.69,3.79,5.86,5.86,0,0,1,0,.88,2.86,2.86,0,0,0,0,.6.5.5,0,0,0,.65.42,2,2,0,0,0,1.62-1.11,2.64,2.64,0,0,1,1-1.11c.28-.23.55-.46.79-.69.88-1,1.75-2,2.54-3l1.39-1.8c.51-.65.88-1.43,1.34-2.12a52.32,52.32,0,0,0,2.91-5.5,33.71,33.71,0,0,0,2.36-6.56c.14-.69.18-1.43.28-2.17.09-.51.09-1.06.19-1.62a1.93,1.93,0,0,1,.18-.69.43.43,0,0,1,.69-.23,2.53,2.53,0,0,1,.88,1,14.24,14.24,0,0,1,1,10.25,5.63,5.63,0,0,0-.23.83,2.17,2.17,0,0,1-.65,1.38c-.09,0-.14.14-.18.19s.09-.14.14-.19a.51.51,0,0,1,.14.65c-.28.69-.51,1.39-.74,2-.32,1-.79,1.89-1.06,2.91a2.33,2.33,0,0,1-.32.69,14.65,14.65,0,0,1-1.11,2.26s0,0,0,.09A21.38,21.38,0,0,1,73.88,302,4,4,0,0,1,72.54,304c-.18.18-.32.46-.51.69.32.09.37.14.19.37a37.23,37.23,0,0,1-2.36,3.14,9.4,9.4,0,0,1-2.12,1.94,8.82,8.82,0,0,1-2.49,1.39c-.18.09-.37.09-.32-.18s-.09-.18-.18-.14a4.42,4.42,0,0,1-1.71.42A2.89,2.89,0,0,1,61.64,311.42Zm2.49-6.24a4.28,4.28,0,0,0-1.94,1s0,.14,0,.23.19.09.23,0A3.64,3.64,0,0,0,64.13,305.19Zm-.46,1.43s0-.09-.09-.09c-.32,0-.55.23-.83.42,0,0-.09.09-.09.14s.09.09.09.09C63.16,307.17,63.67,306.8,63.67,306.62Zm.69,3.42a4.49,4.49,0,0,0,1.11-.69c.28-.28.65-.42.74-.83-.42-.18-.69.23-1,.32a9.16,9.16,0,0,0-.92.51,1.23,1.23,0,0,0-.46.51c0,.09,0,.28.23.28A1.9,1.9,0,0,0,64.37,310Zm1.29-5.87a1.46,1.46,0,0,0-.65.65.14.14,0,0,0,.09,0C65.61,304.54,65.94,304.08,65.66,304.17Zm.69,6.42a14.39,14.39,0,0,0,3.6-3.09s0-.09,0-.14h-.09l-.23.14c-1.06.92-2.17,1.76-3.28,2.59a2.6,2.6,0,0,1-.32.37s0,.14,0,.19a.14.14,0,0,1,.09,0S66.26,310.64,66.35,310.59Zm7.25-9.79s-.09,0-.14.09,0,0,0,0S73.56,300.84,73.6,300.8Z"/><path class="cls-2" d="M118.36,313.27c-.18-.32-.42-.32-.74-.19-.51.23-.74.14-1-.28a7.59,7.59,0,0,1-.42-.88.87.87,0,0,0-.55-.65,1.69,1.69,0,0,1-1.11-1.71,6.8,6.8,0,0,1,0-1.94c.23-1.85.46-3.69.83-5.54s.83-3.88,1.34-5.77l.14-.69c0-.18.09-.37-.09-.46a.5.5,0,0,0-.51.09,3.84,3.84,0,0,0,.32-.6s0-.14,0-.14-.14,0-.14,0a1.61,1.61,0,0,0-.51.6c-.28.46-.6,1-.88,1.48-.14.19-.23.42,0,.6a1,1,0,0,1-.14.23,4.68,4.68,0,0,0-1.71,2.08l-1,1.52c-1.15,1.94-2.31,3.88-3.46,5.77-.51.92-1.06,1.8-1.62,2.68-.14.18-.28.37,0,.55h0a1.45,1.45,0,0,1-1.85.74h-.14c-.32-.09-.42-.46-.69-.55s-.55,0-.83-.14a1.59,1.59,0,0,1-.55-.55,2.07,2.07,0,0,1-.14-.51c-.14-.55-.42-.92-1.06-.79-.18,0-.32-.14-.37-.28a2.84,2.84,0,0,1-.42-1.34,5.63,5.63,0,0,1,0-.88c.14-2.31,0-4.67.28-7a11.48,11.48,0,0,0,.09-1.75,12.92,12.92,0,0,1,.14-2.31,4.2,4.2,0,0,0,0-.79c0-.28,0-.46-.37-.42s-.18-.14-.14-.23a3.25,3.25,0,0,1,.23-.6.67.67,0,0,0-.09-.14.23.23,0,0,0-.14,0l-.28.42c-.74,1.62-1.52,3.23-2.22,4.85-.83,1.8-1.57,3.6-2.36,5.4a24,24,0,0,0-1,2.54,3.64,3.64,0,0,0-.23,1c0,.14.09.18.19.23s0,.42,0,.6c0,.37-.14.55-.51.6a.5.5,0,0,0-.32.14.58.58,0,0,1-1,0,.29.29,0,0,0-.37-.09.92.92,0,0,1-1.11-.55c-.14-.23-.14-.6-.32-.74s-.55-.28-.74-.51a1.75,1.75,0,0,1-.6-1.71,32.57,32.57,0,0,1,1.29-4.11c.46-1.11.83-2.26,1.25-3.37a2,2,0,0,1,.23-.55c.32-.69.6-1.39.88-2.12.69-1.71,1.39-3.46,2.08-5.22.37-.83.74-1.71,1.15-2.54l1.11-2.49c.19-.46.46-.92.69-1.39s.46-1,.69-1.43a2,2,0,0,1,.37-.69,5.13,5.13,0,0,0,1.11-1.57,3.33,3.33,0,0,1,.88-1.11,1.74,1.74,0,0,1,2.22.18,2.6,2.6,0,0,0,1,.74,1.53,1.53,0,0,1,.6.51,6.94,6.94,0,0,0,.92,1.11,1.89,1.89,0,0,1,.6,1.06,3.1,3.1,0,0,0,.79,1.43,1.14,1.14,0,0,1,.28.83,30.69,30.69,0,0,1,.28,4.11,4.46,4.46,0,0,1,0,.79,3,3,0,0,0,0,1.57,1.33,1.33,0,0,1,0,.6,1.54,1.54,0,0,0,0,1,2.67,2.67,0,0,1,0,1.48,11.23,11.23,0,0,0-.37,1.71h0a1.62,1.62,0,0,1,.14.92c0,.46-.14.88-.18,1.34a1,1,0,0,1-.28.6.35.35,0,0,0,0,.42c.14.23.23.46.46.51s.37-.23.51-.42c1.06-1.85,2.26-3.6,3.42-5.4a20.45,20.45,0,0,1,1.66-2.26c.69-.88,1.25-1.85,1.89-2.72,1.25-1.71,2.45-3.46,3.83-5,.23-.23.37-.51.6-.74a2.86,2.86,0,0,1,1.94-1.39,1.44,1.44,0,0,0,.83-.42.85.85,0,0,1,1.06-.14c.23.09.46.18.65.28s.32.18.37.37c.09.46.46.65.79.83a2,2,0,0,1,.6.42,1.9,1.9,0,0,1,.46,1.34,6.44,6.44,0,0,1-.65,3,.86.86,0,0,0-.09.32c0,.09,0,.14,0,.18s.14,0,.18-.09a2.24,2.24,0,0,0,.51-1.11,1.42,1.42,0,0,1,.42-.92.17.17,0,0,1,.14,0,.21.21,0,0,1,.14.14,4.6,4.6,0,0,1-.37,1.75,9.38,9.38,0,0,0-.51,1.48,5,5,0,0,1-.55,1.66.36.36,0,0,0,0,.51.44.44,0,0,1,.14.46,5.55,5.55,0,0,1-.88,2.08v-.83a1.38,1.38,0,0,0,.51-1.06h0a1.36,1.36,0,0,0-.55,1.06,24.44,24.44,0,0,0-1.43,4,.28.28,0,0,0,0,.18c.09,0,.14,0,.18-.09.19-.37.32-.74.51-1.15a19.78,19.78,0,0,1-.79,3,.82.82,0,0,1-.37.51,1.69,1.69,0,0,0-.74,1.25,13.09,13.09,0,0,1-.37,1.94c-.09.19,0,.28.14.37a16,16,0,0,1-.69,3.28.56.56,0,0,0-.14.42c-.37,1.8-1,3.56-1.25,5.36a12.94,12.94,0,0,1-.28,1.29c-.09.23-.18.37-.46.23a.31.31,0,0,0-.32.09,1.41,1.41,0,0,1-.37.37C118.68,313.5,118.49,313.5,118.36,313.27Zm-26-9.05v0Zm.55-1.57v0l0,0v0Zm.65-1.52a.41.41,0,0,1,0-.23v0s-.09.14-.14.18,0,.09,0,.14S93.51,301.17,93.55,301.12ZM95.17,297s.09-.14.14-.18,0-.09,0-.14a.1.1,0,0,0-.09.09.35.35,0,0,0,0,.23l0,0Zm.69,8.08a4.28,4.28,0,0,1-.69,1.94A4.1,4.1,0,0,1,95.86,305.09Zm0-9.84c0-.14.14-.23.18-.37a1.17,1.17,0,0,1,.19-.32c0-.09.09-.14.14-.23v-.09s-.09,0-.09,0,0,.18,0,.28-.14.23-.19.32a2.77,2.77,0,0,1-.18.37v0Zm.88,7.81a5.33,5.33,0,0,1-.88,2A7.94,7.94,0,0,1,96.74,303.06Zm.18-10.25c0-.09.14-.23.19-.32v0a1.39,1.39,0,0,0-.19.37l0,0Zm.23,9.24s0,0,.09-.09v.14s-.09.14-.14.18A.51.51,0,0,1,97.16,302Zm.55-11a.65.65,0,0,0,.14-.18s0,0-.09,0-.18.18-.14.23S97.71,291.1,97.71,291.05Zm.55,8.22a2,2,0,0,1,.42-.6,6.19,6.19,0,0,1-1.06,2.4C97.85,300.47,98,299.83,98.26,299.27Zm1.29-2.59v0a4.66,4.66,0,0,1-.88,1.94A4,4,0,0,1,99.56,296.69Zm.19-10.21a1.17,1.17,0,0,0-.19.32v0C99.6,286.71,99.7,286.62,99.74,286.48Zm.69,8.27a4.75,4.75,0,0,1-.88,1.89A4.47,4.47,0,0,1,100.44,294.75Zm-.19-9.51c.28-.32.42-.6.28-.51s-.23.32-.28.51v0Zm.23,9.38c0-.09,0-.09.09,0a0,0,0,0,1,0,0s0,.09-.09.14S100.48,294.65,100.48,294.61Zm.65-11.13s.09,0,.14-.09v-.09a.63.63,0,0,1-.14.18v0Zm6.1,24.85c0-.14.23-.18,0-.32l-.14.28v.14S107.18,308.37,107.22,308.33Zm.18-16.91,0,0v0S107.41,291.51,107.41,291.42Zm1.48,16a1.14,1.14,0,0,0-.18.32A.74.74,0,0,1,108.89,307.4Zm.51-.92a2.69,2.69,0,0,1-.19.37C109.26,306.71,109.35,306.62,109.4,306.48Zm1.06-1.75a1.15,1.15,0,0,1,.19-.32.93.93,0,0,0-.19.37Zm.88-1.57,0,0Zm.32-.51c-.09.18-.23.32-.32.51C111.43,303,111.57,302.83,111.66,302.64Zm.42-.79s.09,0,.14-.09-.09.14-.14.18Zm.28-.46h0a2.74,2.74,0,0,0-.18.37C112.26,301.63,112.31,301.54,112.35,301.4Zm.18-.18h0l-.19.18h0A.36.36,0,0,0,112.54,301.21Zm.18-.32c0,.09-.09.23-.14.32h0A1.15,1.15,0,0,0,112.72,300.89Zm.19-.18-.19.18C112.77,300.8,112.86,300.75,112.91,300.71Zm.18-.32c0,.09-.14.23-.18.32A.74.74,0,0,1,113.09,300.38Zm.42-.79a.1.1,0,0,1,.09-.09.64.64,0,0,0-.14.18S113.46,299.6,113.51,299.6Zm.88-1.39s0-.09.09-.14-.09.14-.14.18A0,0,0,0,1,114.38,298.21Zm1-1.52a1.19,1.19,0,0,1-.32.51A1.2,1.2,0,0,1,115.35,296.69Zm.19-.18-.19.18C115.4,296.59,115.49,296.55,115.54,296.5Zm1.57-7.71,1.62-2.31M120.94,307l0,0,0,0Zm.32-1.15v-.09h0s0,0,0,.09S121.22,305.92,121.27,305.88Zm.46-1.43a.16.16,0,0,0,0-.23c-.09,0-.14.09-.19.14s0,.14,0,.18,0,0,.14.14C121.64,304.58,121.68,304.54,121.73,304.45Zm.69-2.17h0Zm1-4.2a.21.21,0,0,0,0-.23s-.09,0-.14.09a.11.11,0,0,0,0,.18S123.44,298.12,123.44,298.07Zm1.25-3.19a2.77,2.77,0,0,1-.18.37A2.68,2.68,0,0,1,124.68,294.88Zm.32-1.25c0-.18.14-.32.19-.51,0,.18,0,.37,0,.51s0,.19-.18.14A.23.23,0,0,1,125,293.64Z"/><path class="cls-2" d="M137.38,309.25c-1.62-.09-3.23-.18-4.85-.14H131a6.57,6.57,0,0,1-4.3-1.48,1.2,1.2,0,0,1-.46-.51c-.09-.23-.23-.51-.32-.74a4.91,4.91,0,0,0-.74-1.57,4.34,4.34,0,0,1-.51-1.66,2.34,2.34,0,0,1,.42-1.76,3,3,0,0,0,.51-.92,30.89,30.89,0,0,1,2.59-5.08s0-.09.09-.14a42,42,0,0,1,3.33-5.27c.88-1.34,1.85-2.63,2.82-3.88a4.57,4.57,0,0,0,.51-.92c.14-.42.55-.65.55-1.06,0-.18.28-.18.42-.28s.14-.09.09-.09-.09-.14-.18-.14-.14,0-.23,0-.37.14-.51,0a.57.57,0,0,1,0-.6,1.52,1.52,0,0,1,.83-.69,9.27,9.27,0,0,1,2.17-.74,20.89,20.89,0,0,1,2.36-.42c1.29-.14,2.68-.23,4-.32.42,0,.88,0,1.29-.09a4.16,4.16,0,0,1,2,.28,3.05,3.05,0,0,1,.79.55,1.45,1.45,0,0,1,.28.74,1.46,1.46,0,0,0,.32,1.06,1,1,0,0,1,.14.23.84.84,0,0,1,0,1.11.66.66,0,0,0-.18.65c0,.18-.09.32-.32.32a1.48,1.48,0,0,1-.65-.14,3.68,3.68,0,0,0-1.71-.37,23.45,23.45,0,0,0-3.14.14l-2.63.42a4.26,4.26,0,0,0-.74.18c-.18,0-.18.18-.18.37v0a2.45,2.45,0,0,0-1.11,1.43,16.88,16.88,0,0,1-1.39,2.91,9.64,9.64,0,0,0-.6,1.62.45.45,0,0,0,.32.51,3,3,0,0,0,1.11,0,11.09,11.09,0,0,1,1.75,0,1.69,1.69,0,0,1,.92.42c.23.23.42.42.19.74a.35.35,0,0,0,.09.42l.51.37c.14.09.32.19.51.32.42.42.37.65-.14,1l-.28.14s0,.09,0,.18a.1.1,0,0,0,.09.09l.51.14a.29.29,0,0,1,.14.46.77.77,0,0,1-.46.32c-.14,0-.32,0-.51.09a30.31,30.31,0,0,0-4.06.46,5.05,5.05,0,0,1-1.66.09,6,6,0,0,0-1.29,0,2.05,2.05,0,0,0-.74.28.2.2,0,0,0-.32.09,1.38,1.38,0,0,0-.18.46v0a.22.22,0,0,1,.14.28,4.9,4.9,0,0,1-.79,1.34c-.09.09-.14.23-.23.32h.14a4.1,4.1,0,0,1-.51,1.43s-.09-.09-.18,0h.18a5.52,5.52,0,0,1-.23.83c0,.28,0,.46.32.51l1.85.28c1.52.14,3,.37,4.57.65a6.47,6.47,0,0,1,1,.32,1.94,1.94,0,0,1,1.2,1,1.55,1.55,0,0,0,.51.6,3.13,3.13,0,0,1,.46.37.83.83,0,0,1,.28,1.15c-.14.28,0,.42.18.6s.23.55-.09.74a1.45,1.45,0,0,1-.88.18C139.74,309.3,138.54,309.3,137.38,309.25ZM136.14,297l3-.42s.09,0,.14-.09,0,0,0-.09c-.6.09-1.2.14-1.85.23-.46,0-1,.09-1.43.19,0,0-.09,0-.14.09s0,.09.09.09Zm2.17-9.56s-.09-.09-.14,0,0,.09-.09.14,0,.14.09.14A.25.25,0,0,0,138.31,287.4Zm7-5a3.07,3.07,0,0,0,1.43-.18c-.46-.32-1-.09-1.39-.18a20.52,20.52,0,0,0-3.42.28c-.65,0-1.34.18-2,.28a2.1,2.1,0,0,0-.51.14s-.09.09-.09.14.09.09.14.09a1.28,1.28,0,0,0,.42,0A53.76,53.76,0,0,1,145.28,282.41Zm-4.39,3.6v.09a2.46,2.46,0,0,1-.55.14,3.51,3.51,0,0,1-.69,0v0A12.73,12.73,0,0,1,140.89,286Zm-.65-2.59c1.34-.14,2.68-.37,4.06-.46.6,0,1.2-.14,1.8-.18a.17.17,0,0,0,0-.14c-.42,0-.83,0-1.2,0a42.92,42.92,0,0,0-4.9.55.76.76,0,0,0-.23.09.06.06,0,0,0,0,.09.16.16,0,0,0,0,.09A1,1,0,0,0,140.25,283.43Zm.28,1.89a36.16,36.16,0,0,1,5.91-.6,2.66,2.66,0,0,0,.6-.09s.09-.09.09-.14,0-.09-.09-.14a4.57,4.57,0,0,0-1.39-.09c-.6,0-1.2,0-1.8.09a29.73,29.73,0,0,0-3.56.51c-.14,0-.28.14-.42.18v.18a0,0,0,0,0,0,0,.69.69,0,0,0,.28,0Zm5.82.18a.3.3,0,0,1,.28,0c.09,0,0-.14,0,0a0,0,0,0,1,0,0h-.23C146.3,285.55,146.25,285.51,146.34,285.51Z"/><path class="cls-2" d="M163.29,312.9v-.28a.47.47,0,0,0-.14,0,.57.57,0,0,0-.37.18c-.37.32-.55.28-.88-.09,0,0,0,0,0-.09-.32-1-1.34-1.57-1.89-2.49a.39.39,0,0,0-.55-.18.55.55,0,0,1-.65-.09,7.06,7.06,0,0,1-.79-.88,4.8,4.8,0,0,0-1-1.16,2.85,2.85,0,0,1-.83-1.8c-.23-2-.46-3.93-.65-5.91-.09-1-.09-1.94-.14-2.91v-.42a.25.25,0,0,0-.18-.28.31.31,0,0,0-.28.19,4.22,4.22,0,0,0-.42.79,43.31,43.31,0,0,0-2.12,5.27,5,5,0,0,1-.69,1.52c0-.18.14-.46,0-.51s-.28.23-.32.37c-.18.42-.28.83-.42,1.25,0,0,0,.09.09.14s.09,0,.09,0a4.31,4.31,0,0,1,.23-.37c.09-.28.23-.55.32-.88a4.72,4.72,0,0,1-.32,1.34,1.47,1.47,0,0,1-.42.74.86.86,0,0,0-.32.6.14.14,0,0,1,0,.09.17.17,0,0,0,0-.14.31.31,0,0,1,.28.32,11.64,11.64,0,0,1-.32,1.2c-.09.28-.18,0-.23-.09s-.18-.09-.23,0a5.3,5.3,0,0,0-.51.51.49.49,0,0,1-.42.23.35.35,0,0,1-.23-.09s-.09-.09-.09-.14,0-.46-.18-.55-.37.18-.51.28a.35.35,0,0,1-.46,0,1.43,1.43,0,0,1-.79-.92,1.24,1.24,0,0,0-.69-.83,1.67,1.67,0,0,1-.83-1.25,4,4,0,0,1,.09-1.94c.37-1.15.74-2.36,1.11-3.51,0,0,0,0,0-.09.55-2.26,1.52-4.43,2-6.7a40.71,40.71,0,0,1,2-5.13,1.72,1.72,0,0,0,.18-.69,8.18,8.18,0,0,1,.46-1.39c.28-.6.51-1.2.74-1.8a8.94,8.94,0,0,1,.6-1.15c.37-.65.69-1.29,1-1.94a12.11,12.11,0,0,1,.79-1.29,1.52,1.52,0,0,1,1.75-.79,2.35,2.35,0,0,1,.6.09c.23.09.46.23.42.51s.09.32.32.37c0,0,.09,0,.14.09a2.08,2.08,0,0,1,1.39,1.57,1.93,1.93,0,0,0,.42.65,2.36,2.36,0,0,1,.55,1.06,5.41,5.41,0,0,0,.51,1.29,6.18,6.18,0,0,1,.51,1.8,17.08,17.08,0,0,1,.32,2.68,34.85,34.85,0,0,0,.14,4.39,10.38,10.38,0,0,1,0,2.68,3.42,3.42,0,0,0,0,1,9.32,9.32,0,0,1-.14,2.54c.42-.09.51-.14.65-.42a11.34,11.34,0,0,0,.32-1.2,11.23,11.23,0,0,1,.46-1.66,5.17,5.17,0,0,0,.37-1.2,13.21,13.21,0,0,1,.88-2.91c.14-.37.23-.79.37-1.2a9.15,9.15,0,0,1,.65-1.89,5.43,5.43,0,0,0,.32-.92c.42-1.34,1-2.59,1.52-3.93a1.36,1.36,0,0,1,.18-.37c.69-1.11,1.39-2.26,2-3.37a7.84,7.84,0,0,1,1.8-1.89,1.4,1.4,0,0,1,1.52-.14c.28.14.37.28.28.69s-.09.32.28.28a.44.44,0,0,1,.32.09.55.55,0,0,0,.23.23,1,1,0,0,1,.55,1.16,6.93,6.93,0,0,0-.09,1c0,.18-.23.46,0,.55s.18-.28.28-.37.14-.09.14,0,.09.09.09.14a10.08,10.08,0,0,0-.32,1.62,2.11,2.11,0,0,1-.37.6,1.25,1.25,0,0,0-.28.79,3.85,3.85,0,0,1-.79,2.13c-.51.79-.83,1.62-1.25,2.4-.18.42-.37.83-.55,1.2a6.09,6.09,0,0,0-.6,1.75,17,17,0,0,1-.79,1.94,2.67,2.67,0,0,0-.23.65s0,.09,0,.14.14,0,.14-.09c.14-.23.28-.51.42-.79s.14-.28.28-.46c0,.14,0,0,0,0s0,0,0,0a4,4,0,0,1-.23.69c-.18.51-.42,1.06-.65,1.62a.46.46,0,0,0-.51.28,11.37,11.37,0,0,0-.46,1.11,36.57,36.57,0,0,0-1.29,3.79c-.23.83-.46,1.66-.74,2.49a1.33,1.33,0,0,0,0,.6,1.4,1.4,0,0,0-.14,1,2.09,2.09,0,0,1-.55,1.85c-.09.09-.23.14-.23.23a5.13,5.13,0,0,0-.28,1.85c0,.18-.09.37-.14.51a1.19,1.19,0,0,0-.14,1.11v.32c0,.18,0,.37-.28.42a1.86,1.86,0,0,0-.74.6,3.56,3.56,0,0,1-.42.42.29.29,0,0,1-.42,0C163.15,313.13,163.25,313,163.29,312.9ZM152,302.74c0-.09,0-.14.09-.23l-.09-.09a0,0,0,0,0,0,0,.35.35,0,0,0-.09.23s0,.09,0,.14S152,302.78,152,302.74Zm.55-1.39c.18-.46.37-.88.55-1.29a30.2,30.2,0,0,1,1.43-3.56,5.11,5.11,0,0,0,.32-.74c0-.09,0-.18-.09-.18s-.09,0-.14.09a10.43,10.43,0,0,0-.79,1.62c-.14.42-.32.79-.46,1.15-.37.92-.69,1.85-1,2.68,0,.19,0,.28,0,.28A.09.09,0,0,0,152.53,301.35Zm8.27-.51,0,0Zm5.36,6a.36.36,0,0,1,0-.14.23.23,0,0,1-.14,0,.8.8,0,0,0-.09.23c0,.09,0,.14.09.09S166.11,306.85,166.16,306.8Zm.88-2.73c0,.46,0,.46-.46.83A7.53,7.53,0,0,0,167,304.08Zm.6-2h.09s0,.09,0,.09h0Zm.74-2.17a.14.14,0,0,1,0,.09A.14.14,0,0,0,168.37,299.87Zm0,.09v0Zm.6-1.71c0-.09.09-.14.14-.23h0a.34.34,0,0,1,0,.23s0,.09-.09.14S168.88,298.3,168.93,298.26Zm.46-1.06a1.35,1.35,0,0,1-.32.74A1.73,1.73,0,0,1,169.39,297.19Zm.18-.55a2.56,2.56,0,0,1-.18.55C169.44,297,169.53,296.83,169.57,296.64Zm1.43-4a2.26,2.26,0,0,0-.18.51A1.66,1.66,0,0,1,171,292.62Zm0,0,1.25-3a1.4,1.4,0,0,1-.18.37A2.7,2.7,0,0,1,172.21,289.62Zm.18-.37c0,.14-.14.23-.18.37A1.39,1.39,0,0,1,172.39,289.25Zm.37-.88a1.5,1.5,0,0,1-.37.88A1.35,1.35,0,0,1,172.76,288.37Zm0,0h0Zm0-8.22"/><path class="cls-2" d="M179.23,310.77s0-.09,0-.14,0-.32-.18-.32h-.32a.69.69,0,0,1-.88-.42,2.62,2.62,0,0,1-.32-1,7.24,7.24,0,0,0-.6-2.17,3.87,3.87,0,0,1-.23-2.17,26,26,0,0,1,.55-2.72,45.35,45.35,0,0,1,1.52-5,12.09,12.09,0,0,0,.37-1.2c.51-1.62,1.2-3.14,1.85-4.71.23-.51.42-1.06.6-1.57.51-1.38,1.2-2.68,1.8-4,0-.14.09-.23.14-.37a.31.31,0,0,0-.18-.37,2.45,2.45,0,0,0-.6,0c-1.11.09-2.22.23-3.33.32-.51,0-1.06,0-1.57.09-.09,0-.18,0-.23-.09,1.06-.14,2.08-.28,3.14-.37.83-.14,1.66-.23,2.49-.37.09,0,.18,0,.28,0s.09-.09.09-.14-.09-.14-.09-.14a2.22,2.22,0,0,0-.55,0c-1.25.14-2.49.32-3.74.46-.69,0-1.39.14-2.08.18a1.55,1.55,0,0,1-1.11-.18.17.17,0,0,1,0-.14c0-.09,0-.14.09-.14a.67.67,0,0,1,.32-.09c2.08-.28,4.16-.55,6.28-.79l1.2-.14a2.94,2.94,0,0,0,.6-.18.35.35,0,0,0,.09-.23.15.15,0,0,0-.14-.14,9.35,9.35,0,0,0-1.16,0c-1.89.23-3.79.51-5.63.74a10.1,10.1,0,0,1-1.66.09.81.81,0,0,1-.79-.51.71.71,0,0,1,.19-.88c.18-.19.23-.28.09-.51s0-.23.09-.28A1.67,1.67,0,0,1,176,281a.16.16,0,0,0,0-.09s0-.09-.09-.09a.28.28,0,0,0-.18,0c-.18,0-.42.14-.55-.14s.09-.32.19-.46A2.71,2.71,0,0,1,177,278.9a21.36,21.36,0,0,1,4.2-1c.83,0,1.62-.09,2.45-.14a5.06,5.06,0,0,0,1.2-.14,7.32,7.32,0,0,1,2.45-.37.9.9,0,0,1,.6,0,5.06,5.06,0,0,0,1.66,0,12.58,12.58,0,0,1,2.63-.09,2,2,0,0,1,.74.09,4.47,4.47,0,0,0,1.57.23,4.4,4.4,0,0,1,2.82.83,2,2,0,0,1,.92,1.57,3,3,0,0,0,.37,1c.14.37.32.74.46,1.11a1,1,0,0,1-.28,1.16l-.23.23c-.14.19,0,.28.09.37a1,1,0,0,1,.23.14c.14.09.09.28,0,.37a1.66,1.66,0,0,1-1.15.14,1.08,1.08,0,0,1-.37-.09,10.26,10.26,0,0,0-3.33-.55H191.7c-1.06,0-1.34.32-1.39,1.39a.87.87,0,0,0,.14.74.74.74,0,0,1,0,.69,21.6,21.6,0,0,1-1,2.4,4.29,4.29,0,0,0-.32.65,17,17,0,0,1-1.34,3,2.4,2.4,0,0,0-.32.79,1.85,1.85,0,0,1-.46,1.11.59.59,0,0,0-.18.32c-.09.69-.55,1.25-.69,1.94a.83.83,0,0,1-.09.46c-.65,1.29-1,2.73-1.62,4.06a11.75,11.75,0,0,0-.6,1.8,5.43,5.43,0,0,1-.55,1.29c0,.09,0,.18-.09.23a10.68,10.68,0,0,1-.69,2.45s0,.09,0,.19a11.51,11.51,0,0,1-.42,2.12,3,3,0,0,1-.37,1l-1.52.69a1.86,1.86,0,0,1-.69.14C179.23,311.24,179.13,311.05,179.23,310.77Zm-.74-30.25c2.31-.37,4.62-.6,7-.79l1-.14a.69.69,0,0,0,.32-.14s0-.09,0-.18a.16.16,0,0,0-.09,0c-.09,0-.18,0-.32,0-.42,0-.88.09-1.29.09a56.79,56.79,0,0,0-6.19.79,5.5,5.5,0,0,0-.83.23c-.09,0-.28,0-.23.18a.49.49,0,0,0,.23.09C178.26,280.57,178.35,280.52,178.49,280.52Zm6.7,0a3,3,0,0,0,.92-.18s.09-.09.09-.14-.09-.09-.14-.09a4.06,4.06,0,0,0-1.29,0,6.93,6.93,0,0,0-1,.09c-1.39.14-2.77.32-4.16.6-.28,0-.55.14-.88.18a.52.52,0,0,0,.55.09C181.26,280.84,183.2,280.57,185.18,280.47Zm-4.11,30.71c.23-.28.42-.51.65-.74a.91.91,0,0,1-.51.88.17.17,0,0,1-.14,0C180.93,311.33,181,311.24,181.07,311.19Zm1.85-7.71s0,0,0,0,0-.09-.09,0v.09S182.92,303.52,182.92,303.48Zm12.29-23.93.09-.09s0-.14-.09-.14a1.36,1.36,0,0,0-.42-.09l-1.48-.14a19.06,19.06,0,0,0-3.23-.09,3.15,3.15,0,0,0-.65.09.12.12,0,0,0-.14.14.21.21,0,0,0,.14.14c.23,0,.46,0,.69.09a34.1,34.1,0,0,1,4.34.09Zm-1.57.51a9,9,0,0,0-2.91-.32.56.56,0,0,0-.46.14.23.23,0,0,0,0,.14,1.17,1.17,0,0,0,.32.09C191.56,280.1,192.62,280.1,193.64,280.06Zm1.57,2.63a.2.2,0,0,0,.18-.18c0-.09,0-.14-.14-.18a3.92,3.92,0,0,0-.79-.14,16,16,0,0,0-3.33-.14c-.28,0-.46.23-.42.37s.28.18.46.18H193v0c.42,0,.83,0,1.2,0Zm-1.89,1s.14-.09.14-.18-.09-.09-.14-.09c-.6,0-1.2,0-1.8,0v.14l1.2.14C192.9,283.71,193.08,283.66,193.31,283.66Zm5.4,1.2,0,0,0,0Z"/><path class="cls-2" d="M203.66,309.25c-1.62-.09-3.23-.18-4.85-.14h-1.57a6.57,6.57,0,0,1-4.3-1.48,1.2,1.2,0,0,1-.46-.51c-.09-.23-.23-.51-.32-.74a4.91,4.91,0,0,0-.74-1.57,4.35,4.35,0,0,1-.51-1.66,2.35,2.35,0,0,1,.42-1.76,3,3,0,0,0,.51-.92,30.93,30.93,0,0,1,2.59-5.08s0-.09.09-.14a41.85,41.85,0,0,1,3.33-5.27c.88-1.34,1.85-2.63,2.82-3.88a4.57,4.57,0,0,0,.51-.92c.14-.42.55-.65.55-1.06,0-.18.28-.18.42-.28s.14-.09.09-.09-.09-.14-.18-.14-.14,0-.23,0-.37.14-.51,0a.57.57,0,0,1,0-.6,1.52,1.52,0,0,1,.83-.69,9.27,9.27,0,0,1,2.17-.74,20.89,20.89,0,0,1,2.36-.42c1.29-.14,2.68-.23,4-.32.42,0,.88,0,1.29-.09a4.16,4.16,0,0,1,2,.28,3.05,3.05,0,0,1,.79.55,1.45,1.45,0,0,1,.28.74,1.46,1.46,0,0,0,.32,1.06,1,1,0,0,1,.14.23.84.84,0,0,1,0,1.11.66.66,0,0,0-.18.65c0,.18-.09.32-.32.32a1.48,1.48,0,0,1-.65-.14,3.68,3.68,0,0,0-1.71-.37,23.45,23.45,0,0,0-3.14.14l-2.63.42a4.26,4.26,0,0,0-.74.18c-.18,0-.18.18-.18.37v0a2.45,2.45,0,0,0-1.11,1.43,16.88,16.88,0,0,1-1.39,2.91,9.64,9.64,0,0,0-.6,1.62.45.45,0,0,0,.32.51,3,3,0,0,0,1.11,0,11.09,11.09,0,0,1,1.75,0,1.69,1.69,0,0,1,.92.42c.23.23.42.42.19.74a.35.35,0,0,0,.09.42l.51.37c.14.09.32.19.51.32.42.42.37.65-.14,1l-.28.14s0,.09,0,.18a.1.1,0,0,0,.09.09l.51.14a.29.29,0,0,1,.14.46.77.77,0,0,1-.46.32c-.14,0-.32,0-.51.09a30.31,30.31,0,0,0-4.06.46,5.05,5.05,0,0,1-1.66.09,6,6,0,0,0-1.29,0,2.05,2.05,0,0,0-.74.28.2.2,0,0,0-.32.09,1.38,1.38,0,0,0-.18.46v0a.22.22,0,0,1,.14.28,4.87,4.87,0,0,1-.79,1.34c-.09.09-.14.23-.23.32h.14a4.08,4.08,0,0,1-.51,1.43s-.09-.09-.18,0H198a5.58,5.58,0,0,1-.23.83c0,.28,0,.46.32.51l1.85.28c1.52.14,3,.37,4.57.65a6.47,6.47,0,0,1,1,.32,1.94,1.94,0,0,1,1.2,1,1.55,1.55,0,0,0,.51.6,3.13,3.13,0,0,1,.46.37.83.83,0,0,1,.28,1.15c-.14.28,0,.42.18.6s.23.55-.09.74a1.45,1.45,0,0,1-.88.18C206,309.3,204.81,309.3,203.66,309.25ZM202.41,297l3-.42s.09,0,.14-.09,0,0,0-.09c-.6.09-1.2.14-1.85.23-.46,0-1,.09-1.43.19,0,0-.09,0-.14.09s0,.09.09.09Zm2.17-9.56s-.09-.09-.14,0,0,.09-.09.14,0,.14.09.14A.25.25,0,0,0,204.58,287.4Zm7-5a3.07,3.07,0,0,0,1.43-.18c-.46-.32-1-.09-1.39-.18a20.52,20.52,0,0,0-3.42.28c-.65,0-1.34.18-2,.28a2.1,2.1,0,0,0-.51.14s-.09.09-.09.14.09.09.14.09a1.28,1.28,0,0,0,.42,0A53.76,53.76,0,0,1,211.56,282.41Zm-4.39,3.6v.09a2.46,2.46,0,0,1-.55.14,3.51,3.51,0,0,1-.69,0v0A12.73,12.73,0,0,1,207.17,286Zm-.65-2.59c1.34-.14,2.68-.37,4.06-.46.6,0,1.2-.14,1.8-.18a.17.17,0,0,0,0-.14c-.42,0-.83,0-1.2,0a42.92,42.92,0,0,0-4.9.55.76.76,0,0,0-.23.09.06.06,0,0,0,0,.09.16.16,0,0,0,0,.09A1,1,0,0,0,206.52,283.43Zm.28,1.89a36.16,36.16,0,0,1,5.91-.6,2.66,2.66,0,0,0,.6-.09s.09-.09.09-.14,0-.09-.09-.14a4.57,4.57,0,0,0-1.39-.09c-.6,0-1.2,0-1.8.09a29.73,29.73,0,0,0-3.56.51c-.14,0-.28.14-.42.18v.18a0,0,0,0,0,0,0,.69.69,0,0,0,.28,0Zm5.82.18a.3.3,0,0,1,.28,0c.09,0,0-.14,0,0a0,0,0,0,1,0,0h-.23C212.57,285.55,212.53,285.51,212.62,285.51Z"/></g></g></svg>