<svg xmlns="http://www.w3.org/2000/svg" viewBox="0 0 233.96 342.51"><defs><style>.cls-1,.cls-2{fill:#fff;}.cls-2{font-size:46.18px;font-family:OpenSans, Open Sans;}.cls-3{font-family:Rustico-Regular, Rustico;}.cls-4{letter-spacing:-0.01em;}</style></defs><title>Asset 2</title><g id="Layer_2" data-name="Layer 2"><g id="Layer_1-2" data-name="Layer 1"><path class="cls-1" d="M86.06,231.14a27.76,27.76,0,0,1-2.81-.13c-12.15,0-22.66-5.52-30.42-15.88a54.26,54.26,0,0,1-6.75-12.06c-15.29-1.56-24.73-12.37-25.15-12.87l-.1-.12c-13.71-17-9.07-36.55-6-45.07C2,135.26,1.43,118,1.42,115.53,0,95.92,12.93,85,19.83,80.67c-3.25-11.24-2.48-21.13,2.3-29.44,9-15.59,28.7-19.29,29.53-19.44h0A37.09,37.09,0,0,1,66.86,13a49.93,49.93,0,0,1,17-7L84,6c19.15-2.81,30.27,5.5,36.21,13a43.81,43.81,0,0,1,8.17,16.83,5.14,5.14,0,0,1,.1,1V206.57a5.13,5.13,0,0,1-1.5,3.63l-4,4C107.88,229.3,92.59,231.14,86.06,231.14Zm-2.52-10.39a5.2,5.2,0,0,1,.74.05c.6.08,15.75,1.84,31.43-13.84l2.52-2.52v-167A34.14,34.14,0,0,0,112,25.11c-6.19-7.58-15.07-10.59-26.4-9A40.23,40.23,0,0,0,72.2,21.8c-8.28,5.52-12.48,13.4-12.49,23.43a40.25,40.25,0,0,0,4.05,15.54C68.62,70.32,77.1,75.15,89,75.15a5.13,5.13,0,0,1,0,10.26C68.78,85.41,59,74.35,54.44,65.07a50.18,50.18,0,0,1-5-19.72q0-1.21.06-2.39c-5.16,1.67-14,5.57-18.52,13.43-3.75,6.58-3.81,15-.16,24.95a5.13,5.13,0,0,1-2.74,6.45c-.71.32-17.9,8.31-16.44,27.15q0,.24,0,.47c0,.15,0,16.71,11.94,23.09a5.13,5.13,0,0,1,2.16,6.84c-.43.86-10.45,21.49,3,38.22.57.62,8.79,9.44,21,9.44a5.13,5.13,0,0,1,4.94,3.73c.28,1,7.18,24,28.67,24Z"/><path class="cls-1" d="M123.36,65.87h-.19C98.9,65,91.38,53.53,90.6,52.23L99.4,47l-.06-.1c.22.33,5.57,8.07,24.2,8.75a5.13,5.13,0,0,1-.18,10.25Z"/><path class="cls-1" d="M50.76,88.11A5.13,5.13,0,0,1,46,81c4.49-10.47,16.76-14.53,17.28-14.69A5.13,5.13,0,0,1,66.49,76c-.18.06-8.4,2.87-11,9A5.13,5.13,0,0,1,50.76,88.11Z"/><path class="cls-1" d="M40.3,138.39a5.13,5.13,0,0,1-4-8.35c8.93-11.09.27-23-.1-23.46a5.13,5.13,0,0,1,8.17-6.2c4.88,6.39,11.14,22.16-.08,36.09A5.12,5.12,0,0,1,40.3,138.39Z"/><path class="cls-1" d="M52.39,124.12c-1.83,0-3.82-.07-6-.22a5.13,5.13,0,1,1,.71-10.23c11.61.81,15.32-1.13,15.91-1.5l.26-.28c16.4-16,29-15.55,32.15-15.13,19.87.2,31.52,15,32,15.67a5.13,5.13,0,0,1-8.11,6.27c-.15-.19-9.38-11.69-24.3-11.69a3.41,3.41,0,0,1-1-.09,16.2,16.2,0,0,0-6.32.94c-3.77,1.2-9.77,4.11-17,11.11C68.84,121.22,64.16,124.12,52.39,124.12ZM62.52,112.8h0Zm0,0h0Zm0,0h0Zm.55-.68ZM94,106.91Z"/><path class="cls-1" d="M50.76,181.17A5.11,5.11,0,0,1,47,179.51c-11-11.93-6.49-24.24-6.3-24.76l9.59,3.64,0-.07c-.1.29-2.34,7.11,4.22,14.25a5.13,5.13,0,0,1-3.77,8.6Z"/><path class="cls-1" d="M90.58,189.47a5.13,5.13,0,0,1-3.63-8.75c14.67-14.67,32-10.31,39.09-5.95a5.13,5.13,0,0,1-5.34,8.76,22.89,22.89,0,0,0-8.77-2.6c-6.51-.58-12.48,1.79-17.73,7A5.11,5.11,0,0,1,90.58,189.47Z"/><path class="cls-1" d="M49.74,203.25a5.12,5.12,0,0,1-5.07-4.43c-.12-.88-2.79-21.67,9.08-35.56,6.49-7.59,15.87-11.57,27.87-11.82a5.13,5.13,0,0,1,.22,10.25c-8.93.19-15.75,2.94-20.26,8.19-8.89,10.35-6.77,27.39-6.74,27.56a5.13,5.13,0,0,1-4.4,5.76A5.19,5.19,0,0,1,49.74,203.25Z"/><path class="cls-1" d="M123.36,236.3a5.13,5.13,0,0,1-5.13-5.13V5.13a5.13,5.13,0,1,1,10.26,0v226A5.13,5.13,0,0,1,123.36,236.3Z"/><path class="cls-1" d="M126.82,96.67A17.19,17.19,0,0,0,128,102.9V90.43A17.21,17.21,0,0,0,126.82,96.67Z"/><path class="cls-1" d="M128,14.08v58a29.24,29.24,0,0,1,10.17-4.24V58.32a6,6,0,1,1,12.06,0V67.9a29.34,29.34,0,0,1,18.52,12.62,6,6,0,1,1-10.07,6.63,17.33,17.33,0,0,0-8.46-6.74v34.23a29.41,29.41,0,0,1,0,57.57v9.56a6,6,0,0,1-12.06,0v-9.58A29.33,29.33,0,0,1,128,167.95V226a106,106,0,1,0,0-211.94Zm1.21,203.26V212.5a91.53,91.53,0,1,0,0-183.07V24.61a96.36,96.36,0,1,1,0,192.72Z"/><path class="cls-1" d="M129.7,152.95a17.34,17.34,0,0,0,8.46,6.73V125.46A29.25,29.25,0,0,1,128,121.21v30A6,6,0,0,1,129.7,152.95Z"/><path class="cls-1" d="M138.15,80.41a17.44,17.44,0,0,0-10.17,10V102.9a17.44,17.44,0,0,0,10.17,10Z"/><path class="cls-1" d="M161.55,143.42a17.36,17.36,0,0,0-11.34-16.26v32.51A17.36,17.36,0,0,0,161.55,143.42Z"/><text class="cls-2" transform="translate(0 273.66)">Invierte en<tspan class="cls-3"><tspan x="25.13" y="36.52">tu men</tspan><tspan class="cls-4" x="164.06" y="36.52">t</tspan><tspan x="184.38" y="36.52">e</tspan></tspan></text></g></g></svg>